<?xml version="1.0" standalone="no"?>
<!DOCTYPE svg PUBLIC "-//W3C//DTD SVG 20010904//EN"
 "http://www.w3.org/TR/2001/REC-SVG-20010904/DTD/svg10.dtd">
<svg version="1.0" xmlns="http://www.w3.org/2000/svg"
 width="253.000000pt" height="253.000000pt" viewBox="0 0 253.000000 253.000000"
 preserveAspectRatio="xMidYMid meet">
<metadata>
Created by potrace 1.11, written by Peter Selinger 2001-2013
</metadata>
<g transform="translate(0.000000,253.000000) scale(0.100000,-0.100000)"
fill="#000000" stroke="none">
<path d="M1397 2444 c-3 -2 -127 -17 -158 -19 -14 -1 -30 -5 -36 -8 -5 -3 -30
-9 -54 -13 -24 -4 -49 -10 -55 -15 -6 -5 -25 -9 -42 -11 -18 -1 -32 -5 -32 -9
0 -3 -15 -9 -32 -12 -37 -6 -166 -64 -186 -84 -7 -7 -17 -13 -22 -13 -4 0 -27
-16 -50 -35 -23 -19 -46 -35 -51 -35 -16 0 -90 -72 -107 -105 -10 -16 -22 -52
-27 -80 l-10 -50 -56 0 c-33 0 -63 -6 -72 -14 -10 -7 -17 -10 -17 -5 0 5 -4 4
-8 -1 -4 -6 -19 -16 -34 -24 -49 -25 -96 -78 -152 -171 -22 -36 -44 -68 -49
-71 -5 -3 -8 -9 -8 -13 2 -16 -73 -165 -80 -160 -5 3 -9 -4 -9 -15 0 -11 -7
-24 -16 -29 -11 -6 -13 -16 -8 -36 3 -15 9 -25 11 -22 3 3 21 -1 39 -9 20 -8
36 -10 39 -4 14 21 23 6 23 -36 0 -25 -3 -45 -7 -45 -4 0 -4 -25 -1 -55 3 -30
2 -61 -2 -70 -5 -8 -5 -15 0 -15 5 0 9 -6 9 -12 0 -7 4 -26 9 -43 4 -16 8 -54
8 -83 0 -49 2 -53 21 -48 18 5 22 -2 33 -47 14 -58 35 -81 62 -67 13 7 20 6
24 -5 3 -8 0 -17 -5 -21 -10 -6 -7 -61 7 -99 4 -11 18 -35 31 -53 13 -17 21
-37 17 -44 -4 -6 -3 -8 3 -5 6 4 21 -5 34 -19 33 -36 105 -65 161 -65 9 0 19
-11 22 -25 4 -13 11 -24 16 -24 6 0 10 -6 10 -14 0 -8 4 -16 8 -18 4 -1 20
-27 35 -55 15 -29 35 -62 45 -74 9 -11 27 -33 39 -47 13 -15 23 -30 23 -34 0
-5 6 -8 13 -8 23 -1 49 -49 42 -80 -7 -31 -68 -76 -87 -64 -6 4 -8 2 -4 -4 4
-6 -21 -19 -66 -32 -40 -12 -81 -26 -90 -31 -10 -5 -26 -9 -35 -9 -10 0 -27
-7 -37 -15 -18 -14 -12 -15 60 -15 43 1 96 7 117 14 33 12 55 5 25 -8 -7 -3
24 -4 69 -4 50 1 79 6 76 12 -4 5 1 7 10 3 10 -3 17 -3 17 1 0 8 57 32 74 32
5 0 5 -11 2 -25 -6 -23 -4 -25 30 -25 l36 0 -4 40 c-3 38 1 48 16 33 8 -9 68
-31 126 -47 59 -16 204 -20 260 -7 25 6 59 12 75 14 17 2 44 9 60 16 17 7 38
14 48 16 10 2 29 13 44 24 14 12 30 21 36 21 5 0 18 10 28 22 11 11 19 18 19
14 0 -4 11 6 25 21 13 15 25 24 26 18 8 -49 10 -62 10 -75 0 -8 7 -36 16 -63
13 -42 18 -47 44 -47 26 0 29 3 23 24 l-5 23 73 -20 c78 -22 302 -36 243 -16
-16 6 -58 21 -92 34 -34 14 -72 27 -85 29 -13 3 -51 11 -85 18 -37 7 -65 19
-69 28 -3 8 -8 43 -11 78 -3 50 -1 63 12 68 8 3 15 12 15 20 0 7 6 17 14 21
16 9 57 77 87 143 59 132 64 139 86 140 38 0 69 17 114 62 54 54 99 142 99
194 0 14 3 23 8 20 4 -2 6 20 4 50 -2 51 -1 54 22 54 31 0 50 23 38 47 -5 10
-9 39 -9 65 -1 46 0 48 28 48 47 0 58 29 55 145 -2 55 -7 124 -11 153 -6 44
-5 52 9 53 9 1 19 2 24 3 4 2 28 6 54 10 26 5 53 14 59 22 18 22 2 63 -42 107
-42 43 -129 180 -129 203 0 8 -3 14 -7 14 -5 0 -16 12 -27 26 -19 26 -19 26
10 50 23 19 26 25 15 33 -7 5 -11 13 -7 19 3 6 2 13 -4 17 -5 3 -17 23 -27 43
-22 47 -68 111 -94 131 -11 9 -37 31 -57 49 -20 17 -62 44 -92 58 -30 15 -57
30 -60 34 -3 5 -18 10 -35 13 -16 3 -43 10 -59 16 -16 6 -45 14 -65 17 -20 3
-44 8 -54 10 -18 6 -81 16 -104 17 -7 0 -13 3 -13 7 0 4 -25 5 -56 2 -41 -3
-55 -2 -50 7 11 18 -4 53 -20 47 -8 -3 -14 -1 -14 5 0 8 -123 10 -133 3z
m-731 -789 c15 -23 99 -81 169 -117 17 -9 45 -23 64 -33 39 -20 67 -28 212
-59 130 -28 274 -27 353 4 15 5 38 10 50 10 34 0 50 23 36 50 -6 11 -15 18
-19 16 -9 -6 -51 39 -51 54 0 5 21 -3 48 -18 74 -45 227 -99 297 -106 6 -1 20
-5 33 -9 31 -11 57 15 42 42 -5 11 -10 27 -10 36 0 13 5 13 40 -5 l40 -20 0
-83 c0 -45 7 -113 14 -151 8 -38 12 -74 9 -79 -3 -6 -1 -7 5 -3 7 4 14 -3 18
-18 4 -17 11 -23 21 -19 14 5 15 -2 9 -53 -12 -102 -17 -138 -23 -147 -2 -4
-6 -32 -8 -62 -4 -60 -12 -95 -24 -95 -4 0 -5 -15 -3 -34 2 -18 -1 -37 -7 -40
-6 -4 -11 -19 -11 -34 0 -15 -7 -38 -16 -50 -8 -12 -13 -22 -10 -22 3 0 -8
-26 -24 -58 -16 -32 -32 -70 -35 -85 -4 -14 -13 -31 -21 -38 -8 -6 -14 -16
-14 -21 0 -5 -6 -16 -12 -24 -74 -91 -193 -209 -235 -231 -72 -39 -85 -44 -99
-39 -8 3 -12 2 -9 -4 3 -6 0 -10 -7 -11 -7 0 -20 -2 -28 -5 -50 -14 -124 -21
-195 -19 -96 3 -135 10 -183 31 -20 9 -48 21 -62 26 -96 40 -96 40 -185 128
-81 79 -125 134 -153 189 -13 25 -29 49 -34 52 -6 4 -11 20 -12 37 0 17 -5 28
-9 25 -10 -6 -46 37 -47 56 0 7 -11 34 -24 61 -13 26 -27 67 -31 91 -4 24 -9
55 -12 69 -2 14 -11 32 -19 41 -16 18 -20 129 -4 129 26 0 84 204 76 268 -3
28 0 32 20 32 12 0 26 6 30 12 8 12 13 101 15 271 1 48 6 87 10 87 5 0 16 -11
25 -25z m1526 -710 c-4 -94 -21 -148 -68 -216 -38 -57 -78 -89 -92 -74 -4 4
23 129 39 179 5 16 9 49 9 74 0 32 3 43 11 35 20 -20 56 -3 63 29 4 21 11 29
23 26 15 -3 18 -12 15 -53z m-1765 -21 c1 -20 11 -61 21 -92 11 -31 23 -77 27
-101 4 -24 16 -58 26 -74 10 -17 16 -34 13 -38 -12 -20 -124 54 -124 83 0 4
-6 13 -12 20 -20 21 -37 60 -40 93 -1 17 -6 36 -11 43 -7 8 5 27 39 60 27 27
51 47 54 45 2 -2 5 -20 7 -39z m442 -783 c8 -5 10 -14 5 -22 -6 -11 -5 -12 8
-2 8 7 18 10 21 6 12 -12 7 -23 -10 -23 -10 0 -30 -6 -44 -14 -24 -12 -27 -12
-24 3 2 9 4 17 5 19 3 3 7 19 9 32 1 12 12 13 30 1z m-135 -106 c-10 -8 -23
-14 -29 -14 -5 0 -1 6 9 14 11 8 24 15 30 15 5 0 1 -7 -10 -15z"/>
<path d="M890 1359 c-19 -3 -63 -13 -98 -22 -34 -8 -65 -16 -67 -16 -33 -5
-55 -17 -61 -34 -10 -31 22 -50 71 -42 22 4 49 8 60 9 11 1 30 6 42 10 20 6
83 13 181 19 50 3 73 27 42 41 -11 5 -20 12 -20 16 0 17 -97 30 -150 19z"/>
<path d="M1530 1346 c0 -9 -7 -19 -16 -23 -29 -11 40 -40 112 -47 64 -6 99
-10 199 -23 22 -3 45 -9 51 -14 7 -6 16 -3 25 8 10 12 11 17 2 20 -7 2 -9 11
-6 19 3 8 -1 14 -11 14 -9 0 -16 4 -16 9 0 14 -124 39 -237 46 -92 6 -103 5
-103 -9z"/>
<path d="M1610 1087 c-71 -30 -89 -40 -94 -54 -5 -11 1 -14 22 -13 47 3 52 1
52 -27 1 -29 33 -73 66 -91 60 -31 144 24 144 95 0 36 0 36 20 18 11 -10 23
-15 27 -12 13 13 -18 59 -47 70 -17 6 -30 14 -30 17 0 11 -134 8 -160 -3z"/>
<path d="M795 1081 c-52 -18 -96 -43 -101 -56 -11 -28 0 -35 30 -20 15 8 29
15 30 15 2 0 1 -12 -2 -28 -4 -29 29 -82 51 -82 7 0 23 -6 37 -13 36 -19 80
-10 107 21 25 29 39 82 29 108 -6 16 -6 16 42 -3 17 -7 15 15 -4 34 -27 28
-166 43 -219 24z"/>
<path d="M1489 728 c0 -13 -1 -39 -2 -58 -2 -27 2 -36 14 -36 9 0 16 6 17 13
4 42 3 83 -3 92 -11 19 -25 12 -26 -11z"/>
<path d="M1074 705 c-10 -31 -9 -37 8 -46 22 -12 31 4 26 47 -4 40 -21 39 -34
-1z"/>
<path d="M1180 680 c-8 -5 -10 -15 -5 -26 5 -11 7 -23 6 -27 -1 -5 3 -6 9 -2
5 3 26 -2 46 -11 55 -26 126 -21 158 10 14 14 30 26 36 26 18 0 10 18 -11 23
-12 3 -36 -3 -56 -14 -42 -24 -86 -21 -136 9 -20 11 -40 17 -47 12z"/>
<path d="M1198 393 c-21 -5 -23 -17 -5 -31 18 -15 223 -10 238 5 7 7 10 15 7
19 -7 6 -215 12 -240 7z"/>
<path d="M1283 288 c2 -8 20 -13 42 -13 22 0 40 5 43 13 2 8 -10 12 -43 12
-33 0 -45 -4 -42 -12z"/>
</g>
</svg>
